<svg xmlns="http://www.w3.org/2000/svg" width="157" height="52" fill="none" viewBox="0 0 157 52"><rect width="157" height="52" fill="#212121" fill-opacity=".8" rx="8"/><path stroke="#fcf5e5" stroke-linecap="round" stroke-width="2" d="M32 26h12m-6 6V20"/><path fill="#fcf5e5" d="M62.336 32h-1.824l-5.488-8.304V32H53.2V20.864h1.824l5.488 8.288v-8.288h1.824zm10.475-4.624q0 .496-.064.896h-6.736q.08 1.056.784 1.696t1.728.64q1.473 0 2.08-1.232h1.968a4 4 0 0 1-1.456 2q-1.04.768-2.592.768-1.263 0-2.272-.56a4.2 4.2 0 0 1-1.568-1.6q-.56-1.04-.56-2.4t.544-2.384a3.94 3.94 0 0 1 1.552-1.6q1.008-.56 2.304-.56 1.248 0 2.224.544t1.52 1.536q.544.976.544 2.256m-1.904-.576q-.015-1.008-.72-1.616-.704-.608-1.744-.608-.945 0-1.616.608-.671.592-.8 1.616zm15.54-3.616L83.71 32h-1.92l-1.776-6.512L78.238 32h-1.92l-2.752-8.816h1.856l1.84 7.088 1.872-7.088h1.904l1.792 7.056 1.824-7.056zm13.295 1.008q0 .848-.4 1.6t-1.28 1.232q-.88.464-2.256.464H93.79V32h-1.824V20.88h3.84q1.28 0 2.16.448.896.432 1.328 1.184a3.2 3.2 0 0 1 .448 1.68M95.806 26q1.04 0 1.552-.464.512-.48.512-1.344 0-1.824-2.064-1.824H93.79V26zm9.499 6.144q-1.248 0-2.256-.56a4.15 4.15 0 0 1-1.584-1.6q-.576-1.04-.576-2.4 0-1.344.592-2.384a4.1 4.1 0 0 1 1.616-1.6q1.025-.56 2.288-.56 1.265 0 2.288.56a4.1 4.1 0 0 1 1.616 1.6q.592 1.04.592 2.384t-.608 2.384a4.25 4.25 0 0 1-1.664 1.616 4.8 4.8 0 0 1-2.304.56m0-1.584q.705 0 1.312-.336.624-.336 1.008-1.008t.384-1.632-.368-1.616a2.47 2.47 0 0 0-.976-1.008 2.67 2.67 0 0 0-1.312-.336q-.703 0-1.312.336-.591.336-.944 1.008-.352.656-.352 1.616 0 1.424.72 2.208.736.768 1.84.768m9.579 1.584q-1.04 0-1.872-.368-.816-.384-1.296-1.024a2.6 2.6 0 0 1-.512-1.456h1.888q.048.56.528.944.497.368 1.232.368.768 0 1.184-.288.432-.305.432-.768 0-.495-.48-.736-.463-.24-1.488-.528-.992-.271-1.616-.528a2.9 2.9 0 0 1-1.088-.784q-.447-.528-.448-1.392 0-.705.416-1.28.416-.592 1.184-.928.784-.336 1.792-.336 1.504 0 2.416.768.929.752.992 2.064h-1.824a1.3 1.3 0 0 0-.48-.944q-.432-.352-1.168-.352-.72 0-1.104.272a.84.84 0 0 0-.384.72q0 .352.256.592.257.24.624.384.369.128 1.088.336.96.256 1.568.528.625.256 1.072.768.449.512.464 1.36 0 .752-.416 1.344t-1.184.928q-.752.336-1.776.336m7.475-7.472v4.88q0 .495.224.72.24.208.8.208h1.12V32h-1.44q-1.231 0-1.888-.576t-.656-1.872v-4.88h-1.04v-1.488h1.04v-2.192h1.84v2.192h2.144v1.488z"/></svg>