<svg xmlns="http://www.w3.org/2000/svg" width="108" height="16" fill="none" viewBox="0 0 108 16"><path fill="#212121" d="M13.067 4.875 4.83 13.114 2.556 10.84l8.239-8.238zm1.137-3.409a1.607 1.607 0 0 1 0 2.273l-.569.568-2.272-2.273.568-.568a1.607 1.607 0 0 1 2.273 0M1.54 13.484l1.017-2.643 2.272 2.272-2.643 1.017a.5.5 0 0 1-.646-.646m24.824-9.132v3.264h3.84v1.488h-3.84v3.408h4.32V14H24.54V2.864h6.144v1.488zm5.959 5.2q0-1.328.544-2.352a4.06 4.06 0 0 1 3.632-2.16 4 4 0 0 1 1.696.384q.847.368 1.344.992V2.16h1.84V14h-1.84v-1.328q-.449.64-1.248 1.056-.785.416-1.808.416a4.03 4.03 0 0 1-2.112-.576 4.3 4.3 0 0 1-1.504-1.632q-.544-1.056-.544-2.384m7.216.032q0-.912-.384-1.584a2.6 2.6 0 0 0-.976-1.024 2.6 2.6 0 0 0-1.312-.352q-.705 0-1.312.352-.608.336-.992 1.008-.369.656-.368 1.568 0 .912.368 1.6.383.688.992 1.056.624.352 1.312.352.703 0 1.312-.352.607-.352.976-1.024.384-.688.384-1.6m5.163-5.568a1.13 1.13 0 0 1-.831-.336 1.13 1.13 0 0 1-.337-.832q0-.496.337-.832a1.13 1.13 0 0 1 .831-.336q.48 0 .817.336t.336.832-.336.832a1.1 1.1 0 0 1-.816.336m.897 1.168V14h-1.824V5.184zm4.522 1.488v4.88q0 .495.224.72.24.208.8.208h1.12V14h-1.44q-1.231 0-1.888-.576t-.656-1.872v-4.88h-1.04V5.184h1.04V2.992h1.84v2.192h2.144v1.488zm15.758-.48q0 .848-.4 1.6T64.2 9.024q-.881.465-2.256.464h-2.016V14h-1.824V2.88h3.84q1.28 0 2.16.448.896.432 1.328 1.184a3.2 3.2 0 0 1 .448 1.68M61.943 8q1.04 0 1.552-.464.511-.48.512-1.344 0-1.824-2.064-1.824h-2.016V8zm7.5-1.536a2.8 2.8 0 0 1 1.055-1.04q.672-.384 1.584-.384v1.888h-.464q-1.072 0-1.632.544-.543.544-.544 1.888V14h-1.824V5.184h1.824zm8.14 7.68q-1.248 0-2.256-.56a4.15 4.15 0 0 1-1.584-1.6q-.576-1.04-.576-2.4 0-1.343.592-2.384a4.1 4.1 0 0 1 1.616-1.6q1.024-.56 2.288-.56t2.288.56a4.1 4.1 0 0 1 1.616 1.6q.592 1.04.592 2.384t-.608 2.384a4.25 4.25 0 0 1-1.664 1.616 4.8 4.8 0 0 1-2.304.56m0-1.584q.705 0 1.312-.336.624-.336 1.008-1.008t.384-1.632-.368-1.616a2.47 2.47 0 0 0-.976-1.008 2.67 2.67 0 0 0-1.312-.336q-.705 0-1.312.336-.593.336-.944 1.008-.352.656-.352 1.616 0 1.424.72 2.208.736.768 1.84.768m10.075-5.888h-1.632V14h-1.84V6.672h-1.04V5.184h1.04V4.56q0-1.52.8-2.208.816-.704 2.544-.704v1.52q-.832 0-1.168.32-.336.304-.336 1.072v.624h1.632zm2.544-2.656a1.13 1.13 0 0 1-.831-.336 1.13 1.13 0 0 1-.337-.832q0-.496.337-.832a1.13 1.13 0 0 1 .832-.336q.48 0 .816.336t.335.832-.335.832a1.1 1.1 0 0 1-.817.336m.897 1.168V14h-1.825V5.184zm4.218-3.024V14h-1.824V2.16zm10.475 7.216q0 .496-.064.896h-6.736q.08 1.057.784 1.696.703.64 1.728.64 1.472 0 2.08-1.232h1.968a4 4 0 0 1-1.456 2q-1.04.768-2.592.768-1.264 0-2.272-.56a4.2 4.2 0 0 1-1.568-1.6q-.56-1.04-.56-2.4t.544-2.384A3.94 3.94 0 0 1 99.2 5.6q1.008-.56 2.304-.56 1.248 0 2.224.544a3.83 3.83 0 0 1 1.52 1.536q.544.976.544 2.256m-1.904-.576q-.017-1.008-.72-1.616-.704-.608-1.744-.608-.944 0-1.616.608-.672.592-.8 1.616z"/></svg>