<svg xmlns="http://www.w3.org/2000/svg" width="95" height="26" fill="none" viewBox="0 0 95 26"><mask id="a" width="76" height="16" x="18.781" y="5" fill="#000" maskUnits="userSpaceOnUse"><path fill="#fff" d="M18.781 5h76v16h-76z"/><path d="M24.92 20.24q-1.48 0-2.6-.54a4.24 4.24 0 0 1-1.74-1.54q-.618-1-.64-2.38h2.24q.021 1.06.72 1.82.721.74 2 .74 1.181 0 1.84-.54.66-.56.66-1.44 0-.74-.4-1.22-.379-.5-1.2-.88-.82-.4-2.12-.82-1.739-.56-2.56-1.54-.82-1-.82-2.44 0-1.66 1.2-2.68t3.3-1.02q2.04 0 3.28 1.06 1.241 1.04 1.28 2.9H27.1a1.8 1.8 0 0 0-.28-.96 2.14 2.14 0 0 0-.8-.78q-.52-.32-1.28-.32-.939-.02-1.58.46-.64.46-.64 1.26 0 .98.78 1.54.78.54 2.54 1.12a9 9 0 0 1 1.94.88 3.7 3.7 0 0 1 1.34 1.3q.5.78.5 2 0 1.12-.56 2.04-.558.9-1.62 1.44-1.04.54-2.52.54M36.194 20V6h4.74q1.6 0 2.64.56 1.04.54 1.54 1.5t.5 2.2-.5 2.2-1.54 1.52q-1.04.54-2.64.54h-2.62V20zm2.12-7.38h2.52q1.36 0 1.98-.64.64-.64.64-1.72 0-1.06-.64-1.7-.62-.66-1.98-.66h-2.52zm18.452 7.62q-1.7 0-2.94-.88t-1.9-2.5-.66-3.86.66-3.86 1.9-2.5 2.94-.88q1.72 0 2.94.88 1.24.88 1.9 2.5t.66 3.86-.66 3.86-1.9 2.5q-1.22.88-2.94.88m0-2q1.5 0 2.42-1.34.92-1.36.92-3.9t-.92-3.88q-.92-1.36-2.42-1.36-1.52 0-2.44 1.36-.9 1.34-.9 3.88t.9 3.9q.92 1.34 2.44 1.34M71.697 20V7.9h-3.76V6h9.64v1.9h-3.76V20zm17.193.24q-1.48 0-2.6-.54a4.24 4.24 0 0 1-1.74-1.54q-.62-1-.64-2.38h2.24q.02 1.06.72 1.82.72.74 2 .74 1.18 0 1.84-.54.66-.56.66-1.44 0-.74-.4-1.22-.381-.5-1.2-.88-.82-.4-2.12-.82-1.74-.56-2.56-1.54-.82-1-.82-2.44 0-1.66 1.2-2.68t3.3-1.02q2.04 0 3.28 1.06 1.24 1.04 1.28 2.9h-2.26a1.8 1.8 0 0 0-.28-.96 2.14 2.14 0 0 0-.8-.78q-.52-.32-1.28-.32-.94-.02-1.58.46-.64.46-.64 1.26 0 .98.78 1.54.78.54 2.54 1.12 1.1.36 1.94.88a3.7 3.7 0 0 1 1.34 1.3q.5.78.5 2 0 1.12-.56 2.04-.561.9-1.62 1.44-1.041.54-2.52.54"/></mask><path fill="#212121" d="M24.92 20.24q-1.48 0-2.6-.54a4.24 4.24 0 0 1-1.74-1.54q-.618-1-.64-2.38h2.24q.021 1.06.72 1.82.721.74 2 .74 1.181 0 1.84-.54.66-.56.66-1.44 0-.74-.4-1.22-.379-.5-1.2-.88-.82-.4-2.12-.82-1.739-.56-2.56-1.54-.82-1-.82-2.44 0-1.66 1.2-2.68t3.3-1.02q2.04 0 3.28 1.06 1.241 1.04 1.28 2.9H27.1a1.8 1.8 0 0 0-.28-.96 2.14 2.14 0 0 0-.8-.78q-.52-.32-1.28-.32-.939-.02-1.58.46-.64.46-.64 1.26 0 .98.78 1.54.78.54 2.54 1.12a9 9 0 0 1 1.94.88 3.7 3.7 0 0 1 1.34 1.3q.5.78.5 2 0 1.12-.56 2.04-.558.9-1.62 1.44-1.04.54-2.52.54M36.194 20V6h4.74q1.6 0 2.64.56 1.04.54 1.54 1.5t.5 2.2-.5 2.2-1.54 1.52q-1.04.54-2.64.54h-2.62V20zm2.12-7.38h2.52q1.36 0 1.98-.64.64-.64.64-1.72 0-1.06-.64-1.7-.62-.66-1.98-.66h-2.52zm18.452 7.62q-1.7 0-2.94-.88t-1.9-2.5-.66-3.86.66-3.86 1.9-2.5 2.94-.88q1.72 0 2.94.88 1.24.88 1.9 2.5t.66 3.86-.66 3.86-1.9 2.5q-1.22.88-2.94.88m0-2q1.5 0 2.42-1.34.92-1.36.92-3.9t-.92-3.88q-.92-1.36-2.42-1.36-1.52 0-2.44 1.36-.9 1.34-.9 3.88t.9 3.9q.92 1.34 2.44 1.34M71.697 20V7.9h-3.76V6h9.64v1.9h-3.76V20zm17.193.24q-1.48 0-2.6-.54a4.24 4.24 0 0 1-1.74-1.54q-.62-1-.64-2.38h2.24q.02 1.06.72 1.82.72.74 2 .74 1.18 0 1.84-.54.66-.56.66-1.44 0-.74-.4-1.22-.381-.5-1.2-.88-.82-.4-2.12-.82-1.74-.56-2.56-1.54-.82-1-.82-2.44 0-1.66 1.2-2.68t3.3-1.02q2.04 0 3.28 1.06 1.24 1.04 1.28 2.9h-2.26a1.8 1.8 0 0 0-.28-.96 2.14 2.14 0 0 0-.8-.78q-.52-.32-1.28-.32-.94-.02-1.58.46-.64.46-.64 1.26 0 .98.78 1.54.78.54 2.54 1.12 1.1.36 1.94.88a3.7 3.7 0 0 1 1.34 1.3q.5.78.5 2 0 1.12-.56 2.04-.561.9-1.62 1.44-1.041.54-2.52.54"/><path fill="#212121" d="m22.32 19.7-.087.18h.001zm-1.74-1.54-.17.105.002.003zm-.64-2.38v-.2h-.202l.003.203zm2.24 0 .2-.004-.003-.196h-.196zm.72 1.82-.146.135.003.005zm3.84.2.128.155.002-.002zm.26-2.66-.159.121.006.007zm-1.2-.88-.087.18.004.002zm-2.12-.82.062-.19zm-2.56-1.54-.154.127.002.001zm6.96-5.08-.13.152.002.001zm1.28 2.9v.2h.205l-.004-.204zm-2.26 0h-.2v.2h.2zm-.28-.96-.172.1.002.004zm-.8-.78-.104.17.005.003zm-1.28-.32-.003.2h.004zm-1.58.46.118.162.003-.002zm.14 2.8-.116.162.003.002zm2.54 1.12-.062.19zm1.94.88-.104.17.004.003zm1.34 1.3-.17.103.003.005zm-.06 4.04.17.106.002-.002zm-1.62 1.44-.09-.178h-.001zm-2.52.54v-.2q-1.44-.001-2.512-.52l-.087.18-.087.18c.778.376 1.676.56 2.687.56zm-2.6-.54.089-.18a4.04 4.04 0 0 1-1.66-1.468l-.168.108-.169.108a4.44 4.44 0 0 0 1.82 1.611zm-1.74-1.54.17-.105q-.587-.945-.61-2.278l-.2.003-.2.003c.015.95.235 1.78.67 2.482zm-.64-2.38v.2h2.24v-.4h-2.24zm2.24 0-.2.004c.015.754.273 1.408.774 1.951l.147-.135.147-.136a2.47 2.47 0 0 1-.667-1.688zm.72 1.82-.142.14c.526.54 1.25.8 2.143.8v-.4c-.813 0-1.423-.234-1.857-.68zm2 .74v.2c.816 0 1.48-.186 1.968-.585l-.127-.155-.127-.155c-.393.322-.955.495-1.713.495zm1.84-.54.13.152a2 2 0 0 0 .73-1.592h-.4c0 .53-.194.953-.588 1.288zm.66-1.44h.2c0-.531-.144-.986-.446-1.348l-.153.128-.154.128c.232.278.354.636.354 1.092zm-.4-1.22.16-.121c-.28-.368-.71-.679-1.275-.94l-.084.181-.084.181c.529.246.898.522 1.125.82zm-1.2-.88.089-.18q-.839-.408-2.147-.83l-.061.19-.062.19q1.292.418 2.094.81zm-2.12-.82.062-.19c-1.139-.367-1.954-.864-2.468-1.478l-.153.128-.153.128c.579.693 1.47 1.222 2.652 1.602zm-2.56-1.54.155-.127c-.513-.627-.774-1.394-.774-2.313h-.4c0 1 .286 1.86.865 2.567zm-.82-2.44h.2c0-1.052.378-1.888 1.13-2.528l-.13-.152-.129-.152c-.847.72-1.27 1.67-1.27 2.832zm1.2-2.68.13.152c.754-.64 1.802-.972 3.17-.972v-.4c-1.43 0-2.582.348-3.429 1.068zm3.3-1.02v.2c1.325 0 2.369.343 3.15 1.012l.13-.152.13-.152c-.87-.745-2.014-1.108-3.41-1.108zm3.28 1.06-.128.153c.776.65 1.183 1.56 1.209 2.751l.2-.004.2-.004c-.028-1.288-.474-2.313-1.352-3.05zm1.28 2.9v-.2H27.1v.4h2.26zm-2.26 0h.2a2 2 0 0 0-.308-1.064l-.171.104-.171.104c.17.278.25.562.25.856zm-.28-.96.174-.1a2.34 2.34 0 0 0-.873-.853l-.1.173-.1.173q.477.276.727.708zm-.8-.78.106-.17c-.385-.237-.85-.35-1.385-.35v.4c.479 0 .867.1 1.175.29zm-1.28-.32.005-.2c-.663-.014-1.236.149-1.704.5l.12.16.12.16c.385-.289.866-.433 1.456-.42zm-1.58.46-.116-.162c-.48.345-.723.825-.723 1.422h.4c0-.47.183-.83.557-1.098zm-.64 1.26h-.2c0 .716.29 1.29.864 1.702l.117-.162.117-.162c-.467-.335-.697-.788-.697-1.378zm.78 1.54-.113.164c.544.377 1.414.758 2.591 1.146l.063-.19.063-.19c-1.17-.385-1.994-.751-2.49-1.094zm2.54 1.12-.061.19a8.8 8.8 0 0 1 1.897.86l.105-.17.105-.17a9.2 9.2 0 0 0-1.983-.9zm1.94.88-.1.173a3.5 3.5 0 0 1 1.27 1.23l.17-.103.172-.103a3.9 3.9 0 0 0-1.41-1.37zm1.34 1.3-.168.108c.308.479.469 1.105.469 1.892h.4c0-.84-.172-1.547-.532-2.108zm.5 2h-.2q0 1.066-.53 1.936l.17.104.172.104q.59-.97.589-2.144zm-.56 2.04-.169-.106q-.526.849-1.54 1.368l.09.178.09.178q1.106-.561 1.7-1.512zm-1.62 1.44-.091-.177c-.659.341-1.465.517-2.428.517v.4c1.01 0 1.884-.184 2.612-.562zm8.753.3h-.2v.2h.2zm0-14v-.2h-.2V6zm7.38.56-.095.176.003.002zm1.54 1.5-.177.092zm0 4.4-.177-.092zm-1.54 1.52.092.178.003-.002zm-5.26.54v-.2h-.2v.2zm0 5.48v.2h.2V20zm0-7.38h-.2v.2h.2zm4.5-.64-.141-.141-.003.002zm0-3.42-.146.137.005.004zm-4.5-.66v-.2h-.2v.2zM36.193 20h.2V6h-.4v14zm0-14v.2h4.74v-.4h-4.74zm4.74 0v.2c1.045 0 1.89.183 2.545.536l.095-.176.095-.176c-.731-.394-1.646-.584-2.735-.584zm2.64.56-.092.178c.66.342 1.142.814 1.455 1.414l.177-.092.177-.092c-.353-.68-.898-1.208-1.625-1.585zm1.54 1.5-.177.092q.475.91.477 2.108h.4q.002-1.282-.523-2.292zm.5 2.2h-.2c0 .8-.16 1.5-.477 2.108l.177.092.177.092q.524-1.01.523-2.292zm-.5 2.2-.177-.092c-.313.6-.796 1.08-1.458 1.436l.095.176.095.176c.725-.39 1.269-.925 1.622-1.604zm-1.54 1.52-.092-.178c-.657.341-1.502.518-2.548.518v.4c1.088 0 2.002-.183 2.732-.562zm-2.64.54v-.2h-2.62v.4h2.62zm-2.62 0h-.2V20h.4v-5.48zm0 5.48v-.2h-2.12v.4h2.12zm0-7.38v.2h2.52v-.4h-2.52zm2.52 0v.2c.933 0 1.657-.219 2.124-.7l-.144-.14-.144-.14c-.36.372-.955.58-1.836.58zm1.98-.64.142.141c.47-.47.698-1.099.698-1.861h-.4c0 .678-.2 1.197-.581 1.579zm.64-1.72h.2c0-.75-.228-1.37-.698-1.841l-.142.141-.141.141c.382.383.581.896.581 1.559zm-.64-1.7.146-.137c-.467-.497-1.192-.723-2.126-.723v.4c.88 0 1.474.214 1.834.597zm-1.98-.66v-.2h-2.52v.4h2.52zm-2.52 0h-.2v4.72h.4V7.9zm15.512 11.46.116-.163zm-1.9-2.5-.185.076zm0-7.72-.185-.075zm1.9-2.5-.116-.163zm5.88 0-.117.162.002.001zm1.9 2.5.186-.075zm0 7.72.186.076zm-1.9 2.5-.115-.163h-.002zm-.52-2.46.165.113zm0-7.78-.165.112v.001zm-4.86 0-.165-.112zm0 7.78-.167.11.002.003zm2.44 3.34v-.2c-1.097 0-2.035-.283-2.824-.843l-.116.163-.116.163q1.3.919 3.056.917zm-2.94-.88.116-.163c-.791-.562-1.403-1.362-1.83-2.412l-.186.075-.185.076c.452 1.11 1.107 1.975 1.97 2.587zm-1.9-2.5.186-.075q-.644-1.574-.646-3.785h-.4q-.002 2.27.675 3.936zm-.66-3.86h.2q.002-2.21.645-3.785l-.185-.075-.185-.075q-.676 1.666-.675 3.935zm.66-3.86.186.075c.427-1.05 1.039-1.85 1.83-2.412l-.116-.163-.116-.163c-.862.612-1.517 1.478-1.969 2.588zm1.9-2.5.116.163c.789-.56 1.727-.843 2.824-.843v-.4q-1.757-.002-3.056.917zm2.94-.88v.2c1.111 0 2.049.284 2.823.842l.117-.162.117-.162c-.852-.615-1.874-.918-3.057-.918zm2.94.88-.115.163c.79.562 1.402 1.362 1.83 2.412l.185-.075.186-.075c-.453-1.11-1.108-1.976-1.97-2.588zm1.9 2.5-.185.075q.644 1.574.645 3.785h.4q.002-2.27-.675-3.935zm.66 3.86h-.2q-.002 2.21-.645 3.785l.185.075.186.076q.676-1.666.674-3.936zm-.66 3.86-.185-.075c-.428 1.05-1.04 1.85-1.83 2.412l.115.163.116.163c.862-.612 1.517-1.478 1.97-2.587zm-1.9 2.5-.117-.162c-.774.558-1.712.842-2.823.842v.4c1.183 0 2.205-.303 3.057-.918zm-2.94-1.12v.2c1.072 0 1.938-.485 2.585-1.427l-.165-.113-.165-.113c-.58.844-1.327 1.253-2.255 1.253zm2.42-1.34.166.112c.645-.953.954-2.299.954-4.012h-.4c0 1.674-.304 2.928-.885 3.788zm.92-3.9h.2c0-1.713-.31-3.053-.955-3.993l-.165.113-.165.113c.581.846.885 2.093.885 3.767zm-.92-3.88.166-.112c-.646-.956-1.512-1.448-2.586-1.448v.4c.927 0 1.674.414 2.255 1.272zm-2.42-1.36v-.2c-1.086 0-1.958.492-2.605 1.448l.165.112.166.112c.58-.857 1.333-1.272 2.274-1.272zm-2.44 1.36-.166-.112c-.631.94-.934 2.28-.934 3.992h.4c0-1.675.298-2.922.866-3.768zm-.9 3.88h-.2c0 1.712.303 3.057.933 4.01l.167-.11.167-.11c-.57-.86-.867-2.116-.867-3.79zm.9 3.9-.165.113c.648.943 1.52 1.427 2.605 1.427v-.4c-.942 0-1.696-.41-2.275-1.253zM71.697 20h-.2v.2h.2zm0-12.1h.2v-.2h-.2zm-3.76 0h-.2v.2h.2zm0-1.9v-.2h-.2V6zm9.64 0h.2v-.2h-.2zm0 1.9v.2h.2v-.2zm-3.76 0v-.2h-.2v.2zm0 12.1v.2h.2V20zm-2.12 0h.2V7.9h-.4V20zm0-12.1v-.2h-3.76v.4h3.76zm-3.76 0h.2V6h-.4v1.9zm0-1.9v.2h9.64v-.4h-9.64zm9.64 0h-.2v1.9h.4V6zm0 1.9v-.2h-3.76v.4h3.76zm-3.76 0h-.2V20h.4V7.9zm0 12.1v-.2h-2.12v.4h2.12zm12.473-.3-.089.18h.002zm-1.74-1.54-.17.105.001.003zm-.64-2.38v-.2h-.203l.003.203zm2.24 0 .2-.004-.004-.196h-.196zm.72 1.82-.148.135.004.005zm3.84.2.126.155.003-.002zm.26-2.66-.16.121.006.007zm-1.2-.88-.088.18.004.002zm-2.12-.82.061-.19zm-2.56-1.54-.155.127.001.001zm6.96-5.08-.13.152.001.001zm1.28 2.9v.2h.204l-.004-.204zm-2.26 0h-.2v.2h.2zm-.28-.96-.173.1.002.004zm-.8-.78-.105.17.005.003zm-1.28-.32-.005.2h.005zm-1.58.46.116.162.004-.002zm.14 2.8-.117.162.003.002zm2.54 1.12-.063.19zm1.94.88-.106.17.005.003zm1.34 1.3-.172.103.003.005zm-.06 4.04.17.106v-.002zm-1.62 1.44-.091-.178h-.002zm-2.52.54v-.2q-1.443-.001-2.514-.52l-.086.18-.087.18c.778.376 1.675.56 2.687.56zm-2.6-.54.088-.18a4.04 4.04 0 0 1-1.66-1.468l-.168.108-.169.108a4.44 4.44 0 0 0 1.82 1.611zm-1.74-1.54.17-.105q-.588-.945-.61-2.278l-.2.003-.2.003q.018 1.427.67 2.482zm-.64-2.38v.2h2.24v-.4h-2.24zm2.24 0-.2.004a2.87 2.87 0 0 0 .772 1.951l.148-.135.147-.136a2.47 2.47 0 0 1-.667-1.688zm.72 1.82-.144.14c.527.54 1.25.8 2.144.8v-.4c-.814 0-1.423-.234-1.857-.68zm2 .74v.2c.815 0 1.479-.186 1.966-.585l-.126-.155-.127-.155c-.393.322-.955.495-1.713.495zm1.84-.54.129.152a2 2 0 0 0 .73-1.592h-.4c0 .53-.194.953-.589 1.288zm.66-1.44h.2c0-.531-.145-.986-.447-1.348l-.153.128-.154.128c.231.278.354.636.354 1.092zm-.4-1.22.159-.121c-.28-.368-.711-.679-1.275-.94l-.084.181-.084.181c.529.246.898.522 1.124.82zm-1.2-.88.087-.18q-.838-.408-2.146-.83l-.061.19-.062.19q1.292.418 2.094.81zm-2.12-.82.06-.19c-1.138-.367-1.953-.864-2.467-1.478l-.153.128-.154.128c.58.693 1.471 1.222 2.652 1.602zm-2.56-1.54.154-.127c-.514-.627-.774-1.394-.774-2.313h-.4c0 1 .286 1.86.865 2.567zm-.82-2.44h.2c0-1.052.377-1.888 1.13-2.528l-.13-.152-.13-.152c-.847.72-1.27 1.67-1.27 2.832zm1.2-2.68.13.152c.752-.64 1.801-.972 3.17-.972v-.4c-1.432 0-2.583.348-3.43 1.068zm3.3-1.02v.2c1.324 0 2.368.343 3.15 1.012l.13-.152.13-.152c-.872-.745-2.015-1.108-3.41-1.108zm3.28 1.06-.129.153c.776.65 1.183 1.56 1.209 2.751l.2-.004.2-.004c-.028-1.288-.474-2.313-1.352-3.05zm1.28 2.9v-.2h-2.26v.4h2.26zm-2.26 0h.2a2 2 0 0 0-.31-1.064l-.17.104-.171.104q.252.416.25.856zm-.28-.96.172-.1a2.34 2.34 0 0 0-.872-.853l-.1.173-.1.173q.477.276.727.708zm-.8-.78.104-.17c-.385-.237-.85-.35-1.384-.35v.4c.478 0 .867.1 1.175.29zm-1.28-.32.004-.2c-.663-.014-1.236.149-1.704.5l.12.16.12.16c.385-.289.865-.433 1.455-.42zm-1.58.46-.117-.162c-.48.345-.723.825-.723 1.422h.4c0-.47.183-.83.556-1.098zm-.64 1.26h-.2c0 .716.29 1.29.863 1.702l.117-.162.116-.162c-.466-.335-.696-.788-.696-1.378zm.78 1.54-.114.164c.544.377 1.413.758 2.591 1.146l.063-.19.062-.19c-1.169-.385-1.993-.751-2.489-1.094zm2.54 1.12-.063.19q1.081.354 1.897.86l.106-.17.105-.17a9.2 9.2 0 0 0-1.983-.9zm1.94.88-.1.173a3.5 3.5 0 0 1 1.268 1.23l.172-.103.171-.103a3.9 3.9 0 0 0-1.41-1.37zm1.34 1.3-.169.108c.307.479.469 1.105.469 1.892h.4c0-.84-.172-1.547-.532-2.108zm.5 2h-.2q0 1.066-.531 1.936l.17.104.172.104q.59-.97.589-2.144zm-.56 2.04-.17-.106q-.526.849-1.541 1.368l.09.178.091.178q1.106-.561 1.7-1.512zm-1.62 1.44-.093-.177c-.658.341-1.465.517-2.427.517v.4c1.01 0 1.883-.184 2.612-.562z" mask="url(#a)"/><path stroke="#212121" stroke-width="2.5" d="M5.78 4v8"/><path stroke="#212121" stroke-linejoin="bevel" stroke-width="2.5" d="m.78 9 5 4 5-4"/><circle cx="5.781" cy="18" r="2" fill="#212121"/></svg>