<svg width="630" height="52" viewBox="0 0 630 52" fill="none" xmlns="http://www.w3.org/2000/svg">
<rect x="0.5" y="0.5" width="629" height="51" rx="7.5" stroke="#212121"/>
<path d="M22.48 19.1V20.96H18.78V33H16.5V20.96H12.78V19.1H22.48ZM34.7091 21.98L27.9491 38.18H25.5891L27.8291 32.82L23.4891 21.98H26.0291L29.1291 30.38L32.3491 21.98H34.7091ZM38.7097 23.6C39.0964 23.0933 39.623 22.6667 40.2897 22.32C40.9564 21.9733 41.7097 21.8 42.5497 21.8C43.5097 21.8 44.383 22.04 45.1697 22.52C45.9697 22.9867 46.5964 23.6467 47.0497 24.5C47.503 25.3533 47.7297 26.3333 47.7297 27.44C47.7297 28.5467 47.503 29.54 47.0497 30.42C46.5964 31.2867 45.9697 31.9667 45.1697 32.46C44.383 32.94 43.5097 33.18 42.5497 33.18C41.7097 33.18 40.963 33.0133 40.3097 32.68C39.6564 32.3333 39.123 31.9067 38.7097 31.4V38.24H36.4297V21.98H38.7097V23.6ZM45.4097 27.44C45.4097 26.68 45.2497 26.0267 44.9297 25.48C44.623 24.92 44.2097 24.5 43.6897 24.22C43.183 23.9267 42.6364 23.78 42.0497 23.78C41.4764 23.78 40.9297 23.9267 40.4097 24.22C39.903 24.5133 39.4897 24.94 39.1697 25.5C38.863 26.06 38.7097 26.72 38.7097 27.48C38.7097 28.24 38.863 28.9067 39.1697 29.48C39.4897 30.04 39.903 30.4667 40.4097 30.76C40.9297 31.0533 41.4764 31.2 42.0497 31.2C42.6364 31.2 43.183 31.0533 43.6897 30.76C44.2097 30.4533 44.623 30.0133 44.9297 29.44C45.2497 28.8667 45.4097 28.2 45.4097 27.44ZM60.0844 27.22C60.0844 27.6333 60.0577 28.0067 60.0044 28.34H51.5844C51.651 29.22 51.9777 29.9267 52.5644 30.46C53.151 30.9933 53.871 31.26 54.7244 31.26C55.951 31.26 56.8177 30.7467 57.3244 29.72H59.7844C59.451 30.7333 58.8444 31.5667 57.9644 32.22C57.0977 32.86 56.0177 33.18 54.7244 33.18C53.671 33.18 52.7244 32.9467 51.8844 32.48C51.0577 32 50.4044 31.3333 49.9244 30.48C49.4577 29.6133 49.2244 28.6133 49.2244 27.48C49.2244 26.3467 49.451 25.3533 49.9044 24.5C50.371 23.6333 51.0177 22.9667 51.8444 22.5C52.6844 22.0333 53.6444 21.8 54.7244 21.8C55.7644 21.8 56.691 22.0267 57.5044 22.48C58.3177 22.9333 58.951 23.5733 59.4044 24.4C59.8577 25.2133 60.0844 26.1533 60.0844 27.22ZM57.7044 26.5C57.691 25.66 57.391 24.9867 56.8044 24.48C56.2177 23.9733 55.491 23.72 54.6244 23.72C53.8377 23.72 53.1644 23.9733 52.6044 24.48C52.0444 24.9733 51.711 25.6467 51.6044 26.5H57.7044ZM77.4434 21.98L70.6834 38.18H68.3234L70.5634 32.82L66.2234 21.98H68.7634L71.8634 30.38L75.0834 21.98H77.4434ZM83.9441 33.18C82.9041 33.18 81.9641 32.9467 81.1241 32.48C80.2841 32 79.6241 31.3333 79.1441 30.48C78.6641 29.6133 78.4241 28.6133 78.4241 27.48C78.4241 26.36 78.6707 25.3667 79.1641 24.5C79.6574 23.6333 80.3307 22.9667 81.1841 22.5C82.0374 22.0333 82.9907 21.8 84.0441 21.8C85.0974 21.8 86.0507 22.0333 86.9041 22.5C87.7574 22.9667 88.4307 23.6333 88.9241 24.5C89.4174 25.3667 89.6641 26.36 89.6641 27.48C89.6641 28.6 89.4107 29.5933 88.9041 30.46C88.3974 31.3267 87.7041 32 86.8241 32.48C85.9574 32.9467 84.9974 33.18 83.9441 33.18ZM83.9441 31.2C84.5307 31.2 85.0774 31.06 85.5841 30.78C86.1041 30.5 86.5241 30.08 86.8441 29.52C87.1641 28.96 87.3241 28.28 87.3241 27.48C87.3241 26.68 87.1707 26.0067 86.8641 25.46C86.5574 24.9 86.1507 24.48 85.6441 24.2C85.1374 23.92 84.5907 23.78 84.0041 23.78C83.4174 23.78 82.8707 23.92 82.3641 24.2C81.8707 24.48 81.4774 24.9 81.1841 25.46C80.8907 26.0067 80.7441 26.68 80.7441 27.48C80.7441 28.6667 81.0441 29.5867 81.6441 30.24C82.2574 30.88 83.0241 31.2 83.9441 31.2ZM101.898 21.98V33H99.618V31.7C99.258 32.1533 98.7846 32.5133 98.198 32.78C97.6246 33.0333 97.0113 33.16 96.358 33.16C95.4913 33.16 94.7113 32.98 94.018 32.62C93.338 32.26 92.798 31.7267 92.398 31.02C92.0113 30.3133 91.818 29.46 91.818 28.46V21.98H94.078V28.12C94.078 29.1067 94.3246 29.8667 94.818 30.4C95.3113 30.92 95.9846 31.18 96.838 31.18C97.6913 31.18 98.3646 30.92 98.858 30.4C99.3646 29.8667 99.618 29.1067 99.618 28.12V21.98H101.898ZM107.186 23.58C107.52 23.02 107.96 22.5867 108.506 22.28C109.066 21.96 109.726 21.8 110.486 21.8V24.16H109.906C109.013 24.16 108.333 24.3867 107.866 24.84C107.413 25.2933 107.186 26.08 107.186 27.2V33H104.906V21.98H107.186V23.58ZM123.337 21.8C124.204 21.8 124.977 21.98 125.657 22.34C126.351 22.7 126.891 23.2333 127.277 23.94C127.664 24.6467 127.857 25.5 127.857 26.5V33H125.597V26.84C125.597 25.8533 125.351 25.1 124.857 24.58C124.364 24.0467 123.691 23.78 122.837 23.78C121.984 23.78 121.304 24.0467 120.797 24.58C120.304 25.1 120.057 25.8533 120.057 26.84V33H117.777V21.98H120.057V23.24C120.431 22.7867 120.904 22.4333 121.477 22.18C122.064 21.9267 122.684 21.8 123.337 21.8ZM130.006 27.44C130.006 26.3333 130.232 25.3533 130.686 24.5C131.152 23.6467 131.779 22.9867 132.566 22.52C133.366 22.04 134.246 21.8 135.206 21.8C136.072 21.8 136.826 21.9733 137.466 22.32C138.119 22.6533 138.639 23.0733 139.026 23.58V21.98H141.326V33H139.026V31.36C138.639 31.88 138.112 32.3133 137.446 32.66C136.779 33.0067 136.019 33.18 135.166 33.18C134.219 33.18 133.352 32.94 132.566 32.46C131.779 31.9667 131.152 31.2867 130.686 30.42C130.232 29.54 130.006 28.5467 130.006 27.44ZM139.026 27.48C139.026 26.72 138.866 26.06 138.546 25.5C138.239 24.94 137.832 24.5133 137.326 24.22C136.819 23.9267 136.272 23.78 135.686 23.78C135.099 23.78 134.552 23.9267 134.046 24.22C133.539 24.5 133.126 24.92 132.806 25.48C132.499 26.0267 132.346 26.68 132.346 27.44C132.346 28.2 132.499 28.8667 132.806 29.44C133.126 30.0133 133.539 30.4533 134.046 30.76C134.566 31.0533 135.112 31.2 135.686 31.2C136.272 31.2 136.819 31.0533 137.326 30.76C137.832 30.4667 138.239 30.04 138.546 29.48C138.866 28.9067 139.026 28.24 139.026 27.48ZM157.66 21.8C158.527 21.8 159.3 21.98 159.98 22.34C160.674 22.7 161.214 23.2333 161.6 23.94C162 24.6467 162.2 25.5 162.2 26.5V33H159.94V26.84C159.94 25.8533 159.694 25.1 159.2 24.58C158.707 24.0467 158.034 23.78 157.18 23.78C156.327 23.78 155.647 24.0467 155.14 24.58C154.647 25.1 154.4 25.8533 154.4 26.84V33H152.14V26.84C152.14 25.8533 151.894 25.1 151.4 24.58C150.907 24.0467 150.234 23.78 149.38 23.78C148.527 23.78 147.847 24.0467 147.34 24.58C146.847 25.1 146.6 25.8533 146.6 26.84V33H144.32V21.98H146.6V23.24C146.974 22.7867 147.447 22.4333 148.02 22.18C148.594 21.9267 149.207 21.8 149.86 21.8C150.74 21.8 151.527 21.9867 152.22 22.36C152.914 22.7333 153.447 23.2733 153.82 23.98C154.154 23.3133 154.674 22.7867 155.38 22.4C156.087 22 156.847 21.8 157.66 21.8ZM175.202 27.22C175.202 27.6333 175.175 28.0067 175.122 28.34H166.702C166.768 29.22 167.095 29.9267 167.682 30.46C168.268 30.9933 168.988 31.26 169.842 31.26C171.068 31.26 171.935 30.7467 172.442 29.72H174.902C174.568 30.7333 173.962 31.5667 173.082 32.22C172.215 32.86 171.135 33.18 169.842 33.18C168.788 33.18 167.842 32.9467 167.002 32.48C166.175 32 165.522 31.3333 165.042 30.48C164.575 29.6133 164.342 28.6133 164.342 27.48C164.342 26.3467 164.568 25.3533 165.022 24.5C165.488 23.6333 166.135 22.9667 166.962 22.5C167.802 22.0333 168.762 21.8 169.842 21.8C170.882 21.8 171.808 22.0267 172.622 22.48C173.435 22.9333 174.068 23.5733 174.522 24.4C174.975 25.2133 175.202 26.1533 175.202 27.22ZM172.822 26.5C172.808 25.66 172.508 24.9867 171.922 24.48C171.335 23.9733 170.608 23.72 169.742 23.72C168.955 23.72 168.282 23.9733 167.722 24.48C167.162 24.9733 166.828 25.6467 166.722 26.5H172.822Z" fill="#212121" fill-opacity="0.3"/>
</svg>
